/* XPM */
static char * east_tex_xpm[] = {
"64 64 9 1",
" 	c None",
".	c #5C94FC",
"+	c #FC9838",
"@	c #000000",
"#	c #C84C0C",
"$	c #D82800",
"%	c #FCBCB0",
"&	c #FCFCFC",
"*	c #3CBCFC",
"................................................................",
"................................................................",
"................................................................",
"................................................................",
"................................................................",
"................................................................",
"................................................................",
"........++++@@..........++++@@..................................",
".......++++++@@........++++++@@.................................",
".......++##++@@........++##++@@.................................",
"......++#++@++@@......++#++@++@@................................",
"......++#++@++@@......++#++@++@@................................",
"......++#++@++@@......++#++@++@@................................",
"......++#++@++@@......++#++@++@@................................",
"......++#++@++@@......++#++@++@@................................",
"......++#++@++@@......++#++@++@@................................",
"......++#++@++@@......++#++@++@@................................",
"......++#++@++@@......++#++@++@@................................",
".......++@@++@@........++@@++@@.................................",
".......++++++@@........++++++@@.................................",
"........++++@@..........++++@@..................................",
"@@@@@@@@@@@@@@@@@@@@@@@@@@@@@@@@@@@@@@@@@@@@@@@@................",
"++++$$$$$$$$++++++++$$$$$$$$+++++++$$$$$$$$+++++@...............",
"++++$$$$$$$$++++++++$$$$$$$$+++++++$$$$$$$$++++++@..............",
"+++++$$$$$$++++++++++$$$$$$++++++++$$$$$$$$++++++@..............",
"+++++++++++++++++++++++++++++++++++$$$$$$$$+++$$$+@.............",
"+++++++++++$$$$$+++++++++++$$$$$++++$$$$$$+++$$$$$@.............",
"$+++++++++$$$$$$$+++++++++$$$$$$$++++$$$$+++$$$$$$@.............",
"$+++++++++$$$$$$$+++++++++$$$$$$$+++++++++++$$$$$$@.............",
"$$+++++++$$$$$$$$$+++++++$$$$$$$$$++++++++++$$$$$$@.............",
"$$+++++++$$$$$$$$$+++++++$$$$$$$$$+++++++++++$$$$$@.............",
"$$+++++++$$$$$$$$$+++++++$$$$$$$$$++++++++++++$$$+@.............",
"$$+++++++$$$$$$$$$+++++++$$$$$$$$$++++++++++++++++@.............",
"$+++++++++$$$$$$$+++++++++$$$$$$$+++++++++++++++++@.............",
"$+++++++++$$$$$$$+++++++++$$$$$$$+++++++++++++++++@.............",
"+++++++++++$$$$$+++++++++++$$$$$+++++++++++++++++@@.............",
"@@@@@@@@@@@@@@@@@@@@@@@@@@@@@@@@@@@@@@@@@@@@@@@@@@..............",
"%%@.............................................................",
"%%@.............................................................",
"%%@.............................................................",
"%%@.............................................................",
"%%@.............................................................",
"%%@.............................................................",
"%#@.............................................................",
"#%@.............................................................",
"%%@.............................................................",
"%%@.............................................................",
"%%@.............................................................",
"%%@.............................................................",
"%%@.............................................................",
"%%@.............................................................",
"%%@.............................................................",
"%%@.............................................................",
"%%@......................................@@@@...................",
"%%@.....................................@&&&&@..................",
"%%@...................................@@&&&&&&@.................",
"%%@..................................@&&&&&&&&@.@...............",
"%%@..................................@&&&&&&&&&@&@..............",
"%%@..................................@&&&&&&*&&&&&@.............",
"%%@.................................@&&&**&&&*&&&&@.............",
"%%@................................@&&&*&&&&&&&&&&@.............",
"%%@.............................@@@&&&&&&&&&&&&&&&&@..@.........",
"%%@............................@&&&&&&&&&&&&&&&&&&&@.@&@........",
"%%@...........................@&&&&&&&&&&&&&&&&&&&&&@&&@........"};
