/* XPM */
static char * north_tex_xpm[] = {
"64 64 8 1",
" 	c None",
".	c #C84C0C",
"+	c #000000",
"@	c #FC9838",
"#	c #5C94FC",
"$	c #80D010",
"%	c #00A800",
"&	c #FCBCB0",
"...+.....@@@..+++..@@@@+...+.......+....########################",
"...+.....@@@..+@@..+@@@+...+.......+....########################",
"...+.....@@@..+@@..+@@@+...+.......+....########################",
"++++++++.@@@@++@...+@@@+++++++++++++++++########################",
".......+.@@@@@@..+++@@@+.......+.......+########################",
".......+.@@@@@@..+@@@@@+.......+.......+########################",
".......+.@@@@@@@++@@@@@+.......+.......+########################",
"++++++++.@@@@@@..@@@@@@+++++++++++++++++########################",
"...+.....@@@@@@..+@@@@@+...+.......+....########################",
"...+.....@+@@@@@++@@@+@+...+.......+....########################",
"...+.....@@@@@@@@@@@@@@+...+.......+....########################",
"++++++++++++++++++++++++++++++++++++++++########################",
"################################################################",
"################################################################",
"################################################################",
"################################################################",
"################################################################",
"################################################################",
"################################################################",
"################################################################",
"################################################################",
"################################################################",
"################################################################",
"################################################################",
"################################################################",
"################################################################",
"################################################################",
"################################################################",
"################################################################",
"################################################################",
"################################################################",
"################################################################",
"################################################################",
"################################################################",
"################################################################",
"################################################################",
"################################################################",
"################################################################",
"################################################################",
"################################################################",
"################################################################",
"################################################################",
"################################################################",
"################################################################",
"##############################++++##############################",
"#############################+$$$$+#############################",
"###########################++$$$$$$+############################",
"##########################+$$$$$$$$+#+##########################",
"##########################+$$$$$$$$$+$+#########################",
"##########################+$$$$$$%$$$$$+########################",
"#########################+$$$%%$$$%$$$$+########################",
"########################+$$$%$$$$$$$$$$+########################",
"#####################+++$$$$$$$$$$$$$$$$+##+####################",
"####################+$$$$$$$$$$$$$$$$$$$+#+$+###################",
"###################+$$$$$$$$$$$$$$$$$$$$$+$$+###################",
"###################$$$$$$$$$$$$$$$$$$$$$$$$$+#+#################",
"#################++$$$$$$$$$$$$$$$$$$$$$$$$$$+$+################",
"################+$$$$$$$$$$$$$$$$$$$$$$$$$$$$$$+################",
"################+$$$$$$$$$$$$$$$$$$$$$$$$$$$$$$+################",
"#################+$$$$$$$$$$$$$$$$$$$$$$$$$$$$+#################",
"&+.&&&&..&&&&&&&&+.&&&&..&&&&&&&&+.&&&&..&&&&&&&&+.&&&&..&&&&&&&",
".+&....+&........+&....+&........+&....+&........+&....+&.......",
".+&....+&........+&....+&........+&....+&........+&....+&.......",
".+&....+&........+&....+&........+&....+&........+&....+&......."};
