/* XPM */
static char * south_tex_xpm[] = {
"64 64 7 1",
" 	c None",
".	c #000000",
"+	c #FCFCFC",
"@	c #747474",
"#	c #BCBCBC",
"$	c #D82800",
"%	c #FC9838",
"....++.......................@++++++++++++++++++++++++++++++++++",
"....++.......................@++++++++++++++++++++++++++++++++++",
"....++.......................@++++++++++++++++++++++++++++++++++",
"....++.......................@++++++@+++++++@+++++++@+++++++@+++",
"....++........................@++++@.@+++++@.@+++++@#@+++++@#@++",
"....++.........................@@@@...@@@@@..#@@@@@###@@@@@##.@@",
"....++.......................................################...",
"....++.......................................####@#######@###...",
"....++.......................................####@#######@###...",
"....++.......................................####@#######@###...",
"....++.......................................###@#######@####...",
"....++.......................................###@#######@####...",
"....++.......................................###@#######@####...",
"....++.......................................################...",
"....++.......................................################...",
"....++.......................................####@#######@###...",
"....++.......................................####@#######@###...",
"....++.......................................####@#######@###...",
"....++.......................................###@#######@####...",
"....++.......................................###@#######@####...",
"....++.......................................###@#######@####...",
"....++.......................................################...",
"....++.............................@@@@......################...",
"....++............................@++++@.....####@#######@###...",
"....++..........................@@++++++@....####@#######@###...",
"....++.........................@++++++++@.@..####@#######@###...",
"....++.........................@+++++++++@+@.###@#######@####...",
"....++.........................@++++++$+++++@###@#######@####...",
"....++........................@+++$$+++$++++@###@#######@####...",
"....++.......................@+++$++++++++++@################...",
"....++....................@@@++++++++++++++++################...",
"....++...................@+++++++++++++++++++####@#######@###...",
"....++..................@++++++++++++++++++++####@#######@###...",
"....++..................+++++++++++++++++++++####@#######@###...",
"....++................@@+++++++++++++++++++++###@#######@####...",
"....++...............@+++++++++++++++++++++++###@#######@####...",
"....++...............@+++++++++++++++++++++++###@#######@####...",
"....++................@++++++++++++++++++++++################...",
"....++.................@++$+++++++++++$++++++################...",
"....++..................@++$++$++++++$+++++++####@#######@###...",
"....++...................@++$$$$+++$$$$++++$+####@#######@###...",
"....++...................@+++++$$$$$$+$$$$$++####@#######@###...",
"....++....................@@@++++$$++++$$$+++###@#######@####...",
"....++.......................@++++++@++++++++###@#######@####...",
"....++........................@@+++@.@@++++@@###@#######@####...",
"....++..........................@@@....@@@@..################...",
"....++.......................................################...",
"....++.......................................####@#######@###...",
"....++.......................................####@#######@###...",
"....++.......................................####@#######@###...",
"....++.......................................###@#######@####...",
"....++.......................................###@#######@####...",
"....++.......................................###@#######@####...",
"+++++++++++++++++++++........................################...",
"$$$$$$$$$$$$$$$$$$$$$........................################...",
"...%%%%....%%%%....%%........................####@#######@###...",
"...$%%.....$%%.....$%........................####@#######@###...",
"...$%%.....$%%.....$%........................####@#######@###...",
"$$$%%%%$$$$%%%%$$$$%%........................###@#######@####...",
"%%%%%%%%%%%%%%%%%%%%%........................###@#######@####...",
"$$$$$$$$$$$$$$$$$$$$$........................###@#######@####...",
".............................................################...",
".............................................################...",
".............................................####@#######@###..."};
