/* XPM */
static char * west_tex_xpm[] = {
"64 64 6 1",
" 	c None",
".	c #000000",
"+	c #BCBCBC",
"@	c #FCFCFC",
"#	c #747474",
"$	c #D82800",
".................................++...........@+++++#.@+++++#.@+",
"...............................@+.............@+++++#.@+++++#.@+",
"..............................@.+.............#######.#######.##",
"..............................++................................",
"@@.@@@.@@@.@@@.@@@.@@@.@@@.@@@.@@@.@@@.@@@.@@@@@#.@@@@@@#.@@@@@@",
"@@.@@@.@@@.@@@.@@@.@@@.@@@.@@@.@@@.@@@.@@@.@@@++#.@+++++#.@+++++",
"@@.@@@.@@@.@@@.@@@.@@@.@@@.@@@.@@@.@@@.@@@.@@@++#.@+++++#.@+++++",
"@@.@@@.@@@.@@@.@@@.@@@.@@@.@@@.@@@.@@@.@@@.@@@++#.@+++++#.@+++++",
"##.###.###.###.###.###.###.###.###.###.###.###++#.@+++++#.@+++++",
"##$###$###$###$###$###$###$###$###$###$###$###++#.@+++++#.@+++++",
"##$###$###$###$###$###$###$###$###$###$###$######.#######.######",
"##$###$###$###$###$###$###$###$###$###$###$###..................",
"##$###$###$###$###$###$###$###$###$###$###$###@@@@@@#.@@@@@@#.@@",
"##$###$###$###$###$###$###$###$###$###$###$###@+++++#.@+++++#.@+",
"##$###$###$###$###$###$###$###$###$###$###$###@+++++#.@+++++#.@+",
"##.###.###.###.###.###.###.###.###.###.###.###@+++++#.@+++++#.@+",
"$$.$$$.$$$.$$$.$$$.$$$.$$$.$$$.$$$.$$$.$$$.$$$@+++++#.@+++++#.@+",
"$$.$$$.$$$.$$$.$$$.$$$.$$$.$$$.$$$.$$$.$$$.$$$@+++++#.@+++++#.@+",
"$$.$$$.$$$.$$$.$$$.$$$.$$$.$$$.$$$.$$$.$$$.$$$#######.#######.##",
"$$.$$$.$$$.$$$.$$$.$$$.$$$.$$$.$$$.$$$.$$$.$$$..................",
"..............................................@@#.@@@@@@#.@@@@@@",
"..............................................++#.@+++++#.@+++++",
"..............................................++#.@+++++#.@+++++",
"..............................................++#.@+++++#.@+++++",
"..............................................++#.@+++++#.@+++++",
"..............................................++#.@+++++#.@+++++",
"..............................................###.#######.######",
"................................................................",
"..............................................@@@@@@#.@@@@@@#.@@",
"..............................................@+++++#.@+++++#.@+",
"..............................................@+++++#.@+++++#.@+",
"..............................................@+++++#.@+++++#.@+",
"..............................................@+++++#.@+++++#.@+",
"..............................................@+++++#.@+++++#.@+",
"..............................................#######.#######.##",
"................................................................",
"..............................................@@#.@@@@@@#.@@@@@@",
"..............................................++#.@+++++#.@+++++",
"..............................................++#.@+++++#.@+++++",
"..............................................++#.@+++++#.@+++++",
"..............................................++#.@+++++#.@+++++",
"..............................................++#.@+++++#.@+++++",
"..............................................###.#######.######",
"................................................................",
"..............................................@@@@@@#.@@@@@@#.@@",
"..............................................@+++++#.@+++++#.@+",
"..............................................@+++++#.@+++++#.@+",
"..............................................@+++++#.@+++++#.@+",
"..............................................@+++++#.@+++++#.@+",
"..............................................@+++++#.@+++++#.@+",
"..............................................#######.#######.##",
"................................................................",
"..@.......@.......@.......@.......@.......@...@@#.@@@@@@#.@@@@@@",
".@$@.....@$@.....@$@.....@$@.....@$@.....@$@..++#.@+++++#.@+++++",
"@$$@....@$$@....@$$@....@$$@....@$$@....@$$@..++#.@+++++#.@+++++",
"$$$@..@@$$$@..@@$$$@..@@$$$@..@@$$$@..@@$$$@..++#.@+++++#.@+++++",
"$$$$@@$$$$$$@@$$$$$$@@$$$$$$@@$$$$$$@@$$$$$$@@++#.@+++++#.@+++++",
"$$$$$$$@$$$$$$$@$$$$$$$@$$$$$$$@$$$$$$$@$$$$$$++#.@+++++#.@+++++",
"@$$$$@@$@$$$$@@$@$$$$@@$@$$$$@@$@$$$$@@$@$$$$@###.#######.######",
"@$$@@$$$@$$@@$$$@$$@@$$$@$$@@$$$@$$@@$$$@$$@@$..................",
"$$$$$$$$$$$$$$$$$$$$$$$$$$$$$$$$$$$$$$$$$$$$$$@@@@@@#.@@@@@@#.@@",
"$$$$$$$$$$$$$$$$$$$$$$$$$$$$$$$$$$$$$$$$$$$$$$@+++++#.@+++++#.@+",
"$$$$$$$$$$$$$$$$$$$$$$$$$$$$$$$$$$$$$$$$$$$$$$@+++++#.@+++++#.@+",
"$$$$$$$$$$$$$$$$$$$$$$$$$$$$$$$$$$$$$$$$$$$$$$@+++++#.@+++++#.@+"};
